<svg width="128" height="32" viewBox="0 0 128 32" fill="none" xmlns="http://www.w3.org/2000/svg">
<path d="M78.8914 21.9756C78.8914 22.5902 78.6219 22.8976 78.079 22.8976H78.0673C77.8771 22.9104 77.6874 22.8656 77.523 22.7689C77.3586 22.6721 77.2271 22.528 77.1456 22.3553L71.0587 10.1344C71.0236 10.0482 70.9747 10.0071 70.9142 10.0071C70.8537 10.0071 70.8244 10.0482 70.8244 10.1344V22.4454C70.8244 22.6744 70.7228 22.7899 70.5178 22.7899H70.3362C70.1409 22.7899 70.0296 22.6744 70.0296 22.4454V10.1344C70.0296 9.54057 70.3245 9.24433 70.9142 9.24564C71.0987 9.23938 71.2806 9.28986 71.4356 9.39029C71.5906 9.49072 71.7112 9.63629 71.7812 9.80745L77.8505 22.0108C77.8857 22.095 77.9345 22.138 77.995 22.138C78.0556 22.138 78.0849 22.0832 78.0849 21.9756V9.68021C78.0849 9.45118 78.1805 9.33764 78.3739 9.33764H78.5906C78.7957 9.33764 78.8972 9.45118 78.8972 9.68021L78.8914 21.9756Z" fill="#E3E2E6"/>
<path d="M87.8136 17.7745C87.8205 17.8211 87.8164 17.8686 87.8017 17.9134C87.787 17.9581 87.762 17.9987 87.7288 18.032C87.6955 18.0653 87.655 18.0904 87.6104 18.1052C87.5658 18.1199 87.5183 18.124 87.4718 18.1171H81.3655V18.5086C81.3655 20.9712 82.4558 22.2018 84.6364 22.2005C85.5352 22.1931 86.4307 22.09 87.3078 21.8932C87.3271 21.8914 87.3458 21.8853 87.3625 21.8755H87.4172C87.5988 21.8755 87.6886 21.9597 87.6886 22.1281V22.2553C87.6886 22.4374 87.5734 22.5529 87.3449 22.5998C86.4553 22.7968 85.5475 22.8998 84.6364 22.9072C81.9259 22.9072 80.5707 21.441 80.5707 18.5086V17.3125C80.5707 16.0806 80.8662 15.0731 81.4572 14.2901C82.1082 13.4209 83.0292 12.9863 84.2204 12.9863C86.6159 12.9863 87.8136 14.4219 87.8136 17.2929V17.7745ZM87.0207 17.2851C87.0207 14.8838 86.0873 13.6826 84.2204 13.6813C82.3171 13.6813 81.3655 14.8884 81.3655 17.3027V17.3947H87.0286L87.0207 17.2851Z" fill="#E3E2E6"/>
<path d="M93.9202 22.5625C93.9202 22.7909 93.5043 22.9051 92.6724 22.9051C91.9524 22.9051 91.4317 22.7577 91.1101 22.4627C90.7886 22.1678 90.6291 21.6634 90.6317 20.9495V13.8084H88.8449C88.6145 13.8084 88.5012 13.7125 88.5012 13.5187V13.3386C88.5012 13.1565 88.6145 13.0665 88.8449 13.0665H90.6317V11.2088C90.6317 10.9798 90.7352 10.8643 90.9403 10.8643H91.1355C91.3308 10.8643 91.4246 10.9798 91.4246 11.2088V13.0743H93.5726C93.8011 13.0743 93.9163 13.1644 93.9163 13.3464V13.5265C93.9163 13.7223 93.8011 13.8162 93.5726 13.8162H91.4246V20.9495C91.4246 21.4213 91.5163 21.7463 91.696 21.9283C91.8756 22.1104 92.2018 22.1984 92.6724 22.1984H93.5394C93.7933 22.1984 93.9202 22.2846 93.9202 22.4529V22.5625Z" fill="#E3E2E6"/>
<path d="M106.852 13.4109V13.4461C106.839 13.4614 106.832 13.4811 106.834 13.501L104.848 21.9184C104.689 22.5709 104.376 22.8972 103.909 22.8972C103.781 22.905 103.654 22.879 103.539 22.822C103.425 22.765 103.327 22.6789 103.256 22.5722C103.132 22.3512 103.042 22.1131 102.987 21.8656L101.071 14.9848C101.036 14.8771 100.999 14.8223 100.964 14.8223H100.927C100.892 14.8223 100.854 14.8771 100.819 14.9848L98.9056 21.8656C98.85 22.1134 98.7579 22.3516 98.6322 22.5722C98.5623 22.6788 98.4655 22.765 98.3516 22.8221C98.2378 22.8792 98.1109 22.9051 97.9839 22.8972C97.5126 22.8972 97.1995 22.5709 97.0446 21.9184L95.0566 13.4461C95.0449 13.4461 95.0391 13.4344 95.0391 13.4109C95.0326 13.3641 95.037 13.3165 95.052 13.2717C95.067 13.227 95.0921 13.1863 95.1254 13.1529C95.1587 13.1195 95.1993 13.0943 95.2439 13.0793C95.2886 13.0643 95.3361 13.0599 95.3828 13.0664H95.4902C95.6112 13.0664 95.7069 13.1506 95.7792 13.3189L97.732 21.7364C97.8036 22.0378 97.8758 22.1885 97.9487 22.1885H97.9858C98.0581 22.1885 98.1362 22.0456 98.2202 21.7559L100.173 14.7655C100.294 14.331 100.552 14.1137 100.954 14.1137C101.356 14.1137 101.61 14.331 101.735 14.7655L103.688 21.7559C103.772 22.0456 103.852 22.1885 103.924 22.1885H103.959C104.032 22.1885 104.105 22.0378 104.176 21.7364L106.129 13.3189C106.201 13.1506 106.297 13.0664 106.418 13.0664H106.525C106.571 13.0628 106.616 13.0694 106.659 13.0857C106.701 13.102 106.739 13.1276 106.77 13.1606C106.802 13.1936 106.825 13.2333 106.839 13.2766C106.853 13.3199 106.857 13.3658 106.852 13.4109Z" fill="#E3E2E6"/>
<path d="M115.448 18.5712C115.448 21.4567 114.208 22.8987 111.728 22.8974C109.248 22.8961 108.011 21.454 108.017 18.5712V17.3027C108.017 14.4199 109.254 12.9779 111.728 12.9766C114.201 12.9753 115.441 14.4173 115.448 17.3027V18.5712ZM114.655 17.3027C114.655 14.8897 113.678 13.6826 111.726 13.6813C109.773 13.68 108.796 14.8871 108.796 17.3027V18.5712C108.796 20.9842 109.773 22.1907 111.726 22.1907C113.678 22.1907 114.655 20.9842 114.655 18.5712V17.3027Z" fill="#E3E2E6"/>
<path d="M120.867 13.3935C120.867 13.5893 120.705 13.6813 120.378 13.6813C119.597 13.6813 118.761 13.9593 117.869 14.5152V22.4452C117.876 22.492 117.871 22.5396 117.856 22.5844C117.841 22.6291 117.816 22.6698 117.783 22.7032C117.749 22.7366 117.709 22.7618 117.664 22.7768C117.62 22.7918 117.572 22.7962 117.525 22.7897H117.416C117.37 22.7959 117.322 22.7912 117.278 22.7761C117.233 22.7609 117.193 22.7357 117.16 22.7023C117.127 22.669 117.102 22.6284 117.087 22.5838C117.072 22.5392 117.068 22.4918 117.074 22.4452V13.4288C117.074 13.188 117.182 13.0666 117.398 13.0666H117.545C117.76 13.0666 117.869 13.188 117.869 13.4288V13.8085C118.605 13.2887 119.478 12.9992 120.378 12.9766C120.705 12.9766 120.867 13.0666 120.867 13.2467V13.3935Z" fill="#E3E2E6"/>
<path d="M128 22.6074C128 22.8032 127.887 22.8971 127.658 22.8971C127.558 22.9022 127.457 22.8854 127.363 22.8479C127.27 22.8104 127.185 22.7531 127.115 22.6798L122.745 17.9915V22.4449C122.752 22.4917 122.747 22.5393 122.732 22.5841C122.717 22.6289 122.692 22.6695 122.659 22.7029C122.625 22.7363 122.585 22.7615 122.54 22.7765C122.496 22.7915 122.448 22.796 122.401 22.7895H122.294C122.247 22.796 122.2 22.7915 122.155 22.7765C122.11 22.7615 122.07 22.7363 122.037 22.7029C122.003 22.6695 121.978 22.6289 121.963 22.5841C121.948 22.5393 121.944 22.4917 121.95 22.4449V9.67977C121.944 9.63308 121.948 9.58549 121.963 9.54078C121.978 9.49608 122.003 9.45549 122.037 9.42224C122.07 9.38899 122.111 9.36399 122.155 9.34923C122.2 9.33447 122.247 9.33035 122.294 9.3372H122.401C122.448 9.33035 122.495 9.33447 122.54 9.34923C122.585 9.36399 122.625 9.38899 122.659 9.42224C122.692 9.45549 122.717 9.49608 122.732 9.54078C122.747 9.58549 122.752 9.63308 122.745 9.67977V17.3025L127.188 13.1388C127.307 13.0317 127.461 12.9736 127.621 12.9763C127.861 12.9763 127.982 13.0839 127.982 13.3012C127.984 13.3531 127.973 13.4046 127.951 13.4517C127.93 13.4988 127.898 13.5404 127.857 13.5733L123.432 17.6294L127.875 22.3275C127.946 22.4046 127.99 22.5029 128 22.6074Z" fill="#E3E2E6"/>
<path d="M64.9115 0H63.9468V32H64.9115V0Z" fill="#E3E2E6"/>
<path d="M57.1724 20.7562L54.3799 18.6636C54.0042 19.1273 53.5239 19.495 52.9786 19.7363C52.4334 19.9776 51.8388 20.0856 51.2437 20.0515C50.535 19.9936 49.8505 19.7658 49.248 19.3873C48.6454 19.0089 48.1424 18.4907 47.7814 17.8766L47.5178 17.4205H58.7639C58.7737 16.6375 58.7737 14.5331 58.5101 13.7325C58.4328 13.4939 58.3435 13.2593 58.2425 13.0297C57.6949 11.8157 56.8417 10.7653 55.7666 9.9818C54.6916 9.19827 53.4317 8.70852 52.1108 8.56067C51.8126 8.52568 51.5127 8.50803 51.2125 8.50781C48.9043 8.50781 46.8011 9.57076 45.3385 11.5048C44.7455 12.29 44.3133 13.1851 44.0668 14.1384C43.8204 15.0918 43.7645 16.0846 43.9025 17.0597C44.0404 18.0348 44.3694 18.9729 44.8706 19.82C45.3718 20.667 46.0352 21.4063 46.8226 21.9953C48.3771 23.1588 50.3182 23.679 52.2445 23.4484C54.1708 23.2178 55.935 22.2539 57.1724 20.7562ZM48.2403 13.4487C48.6026 12.9933 49.0619 12.6251 49.5847 12.3711C50.1075 12.117 50.6803 11.9835 51.2613 11.9805H51.2906C51.8892 11.9835 52.4802 12.1157 53.0234 12.368C53.5666 12.6203 54.0492 12.9869 54.4385 13.4428L54.8622 13.9439H47.8322L48.2403 13.4487Z" fill="#E3E2E6"/>
<path d="M9.56542 9.45681H8.22775C4.00972 9.45681 4.06441 13.0509 4.07417 13.2936V14.3879H9.24125V18.1796H4.07612V23.4905H0.00260211V13.3562C-0.106754 9.0007 3.24033 5.66504 8.23166 5.66309H9.56931L9.56542 9.45681Z" fill="#E3E2E6"/>
<path d="M42.1653 8.51758H38.0742V23.4791H42.1653V8.51758Z" fill="#E3E2E6"/>
<path d="M36.301 12.5599H34.9692C30.7668 12.5599 30.8215 16.3928 30.8293 16.6531V23.483H26.7753V16.7197C26.6659 12.0744 29.9974 8.51758 34.977 8.51562H36.3088L36.301 12.5599Z" fill="#E3E2E6"/>
<path d="M42.4915 5.0543C42.4946 5.53659 42.3547 6.00894 42.0897 6.41146C41.8246 6.81398 41.4463 7.12854 41.0027 7.31526C40.5591 7.50197 40.0702 7.55244 39.5979 7.46025C39.1257 7.36807 38.6913 7.13738 38.35 6.79745C38.0087 6.45751 37.7758 6.02364 37.6808 5.55084C37.5858 5.07803 37.633 4.5876 37.8164 4.14171C37.9998 3.69583 38.3111 3.31457 38.711 3.04629C39.1108 2.77801 39.5811 2.63479 40.0622 2.63478C40.3802 2.63375 40.6953 2.69552 40.9895 2.81655C41.2836 2.93759 41.5511 3.11552 41.7767 3.34019C42.0023 3.56487 42.1815 3.83188 42.3042 4.12599C42.4268 4.4201 42.4904 4.73554 42.4915 5.0543Z" fill="#E3E2E6"/>
<path d="M11.1765 12.5991C10.3223 14.2797 10.1306 16.2212 10.6398 18.0371C11.1489 19.853 12.3215 21.4101 13.9241 22.3985L15.4316 19.4309C14.608 18.8441 14.0223 17.98 13.7815 16.9962C13.5408 16.0124 13.661 14.9747 14.1203 14.0724C14.5796 13.1701 15.3472 12.4636 16.2832 12.0817C17.2191 11.6998 18.2608 11.668 19.2181 11.9922L22.9987 4.62598L18.4585 8.53128C16.9803 8.40991 15.4994 8.73183 14.2042 9.45614C12.909 10.1805 11.8578 11.2744 11.1843 12.5991" fill="#E3E2E6"/>
<path d="M24.5141 19.4167C25.3688 17.7361 25.5607 15.7945 25.0515 13.9785C24.5423 12.1624 23.3695 10.6053 21.7665 9.61719L20.2805 12.5359C21.1041 13.1227 21.6898 13.9868 21.9305 14.9706C22.1713 15.9544 22.0511 16.9921 21.5918 17.8944C21.1325 18.7966 20.3648 19.5032 19.4289 19.8851C18.493 20.267 17.4513 20.2988 16.494 19.9746L12.6783 27.3408L17.1697 23.4727C18.658 23.608 20.1526 23.2935 21.4609 22.5695C22.7693 21.8455 23.8313 20.7454 24.5102 19.4108" fill="#E3E2E6"/>
</svg>
